<?xml version="1.0" encoding="utf-8" ?><svg xmlns="http://www.w3.org/2000/svg" xmlns:xlink="http://www.w3.org/1999/xlink" width="1024" height="1024" viewBox="0 0 1024 1024"><path fill="#F8DBAC" d="M312.067 721.838C308.35 718.758 303.192 716.586 299.095 713.909C288.525 707.003 277.773 697.618 269.743 687.894C249.963 663.94 241.188 634.116 244.269 603.13C245.66 589.143 249.732 575.453 255.293 562.577C287.144 488.838 368.263 449.082 430.68 405.09C465.915 380.256 500.329 352.294 530.29 321.201C552.796 297.845 574.395 270.558 588.185 241.098C590.65 235.834 595.857 219.338 599.501 216.653C604.21 213.184 633.311 217.356 639.616 218.47C682.907 226.116 724.607 249.334 750.022 285.883C780.007 329.005 784.455 379.176 775.156 429.734C758.537 520.086 704.4 602.867 635.072 662.077C621.274 673.861 606.511 684.31 591.588 694.59C583.807 701.592 571.923 706.842 562.68 711.606C514.319 736.529 461.312 751.514 406.595 748.694C378.677 747.078 351.283 740.42 325.738 729.043C321.435 727.118 315.655 724.818 312.067 721.838ZM457.577 556.661C458.862 564.223 461.119 569.28 465.914 575.214C477.248 588.953 493.497 597.727 511.202 599.666C530.356 601.655 548.982 595.38 563.697 583.177C570.521 577.517 578.995 568.229 580.002 559.018C580.328 556.036 579.804 552.831 577.828 550.481C575.473 547.679 571.073 546.209 567.511 546.048C566.656 546.01 566.735 546.02 566.023 546.066L565.376 546.29C557.952 548.932 554.152 556.545 548.9 561.985C536.066 575.28 516.945 579.596 499.963 571.499C494.935 569.102 490.746 565.398 487.102 561.228C481.542 554.864 476.122 543.614 465.693 547.171C462.858 548.139 460.156 550.365 458.893 553.105C458.365 554.249 457.969 555.466 457.577 556.661ZM669.676 320.338C674.548 322.101 678.537 324.213 682.317 327.814C686.821 332.106 693.529 343.155 697.903 345.77C700.531 347.341 705.018 347.529 707.745 346.149C709.848 345.084 710.979 343.153 711.606 340.944C714.216 331.75 710.424 321.259 705.664 313.397C698.888 302.204 687.113 294.573 674.483 291.664C668.634 290.311 662.591 290.008 656.637 290.769C645.356 291.286 633.285 298.187 625.815 306.46C619.702 313.23 612.737 324.215 613.462 333.723C613.703 336.878 615.017 339.786 617.468 341.83C619.226 343.295 621.521 344.674 623.894 344.405C636.685 342.952 641.961 313.953 669.676 320.338ZM436.044 528.003C442.687 525.569 446.746 521.946 449.782 515.474C455.884 502.467 456.307 484.145 451.334 470.717C448.937 464.246 445.069 458.276 438.522 455.411C435.062 453.898 431.759 453.705 428.043 453.896C421.35 456.335 417.53 459.128 414.417 465.74C408.069 479.222 407.361 498.924 412.525 512.887C414.626 518.569 418.055 524.081 423.717 526.746C427.686 528.614 431.79 528.564 436.044 528.003ZM614.84 527.959C621.392 525.57 625.561 521.971 628.564 515.535C634.754 502.266 634.733 482.775 629.633 469.158C627.453 463.338 623.674 458.398 617.915 455.783C615.309 454.599 611.877 453.564 608.998 453.754C602.253 455.383 597.776 457.39 594.026 463.573C586.872 475.367 586.87 494.859 590.395 507.792C592.353 514.977 595.894 522.457 602.737 526.144C606.752 528.307 610.451 528.384 614.84 527.959Z"/><path fill="#81765B" d="M312.067 721.838C316.328 722.672 329.687 729.868 335.287 732.153C401.169 759.043 476.284 749.85 540.037 721.495C552.45 715.964 564.62 709.903 576.513 703.328C581.155 700.796 585.778 696.873 590.641 694.949C590.955 694.825 591.273 694.71 591.588 694.59C583.807 701.592 571.923 706.842 562.68 711.606C514.319 736.529 461.312 751.514 406.595 748.694C378.677 747.078 351.283 740.42 325.738 729.043C321.435 727.118 315.655 724.818 312.067 721.838Z"/><path fill="#F8DBAC" d="M555.713 802.612C553.722 795.189 553.03 786.901 551.821 779.29C550.395 770.31 547.875 760.276 547.878 751.209C549.598 748.011 581.815 734.839 587.777 732.138C590.203 737.643 591.852 743.354 593.792 749.035C596.879 757.855 599.763 766.744 602.442 775.696L616.44 819.331C619.278 828.231 621.576 838.182 625.828 846.511C627.366 849.524 628.782 851.825 631.893 853.41C638.566 856.81 646.976 856.7 654.268 857.938C674.574 861.384 697.334 871.488 704.736 892.376C706.285 896.748 707.048 901.48 707.148 906.109C706.882 906.588 707.098 906.266 706.268 906.871C676.945 910.553 640.17 909.534 610.366 907.324C600.95 906.626 590.754 906.142 581.634 903.628C578.148 902.668 575.291 900.144 573.576 897.022C569.067 886.882 567.141 868.165 565.118 856.542C561.991 838.57 558.663 820.612 555.713 802.612Z"/><path fill="#F9BE76" d="M555.713 802.612C553.722 795.189 553.03 786.901 551.821 779.29C550.395 770.31 547.875 760.276 547.878 751.209C549.598 748.011 581.815 734.839 587.777 732.138C590.203 737.643 591.852 743.354 593.792 749.035C596.879 757.855 599.763 766.744 602.442 775.696C592.297 773.746 582.073 776.721 573.663 782.379C569.858 784.94 556.668 796.941 555.946 801.148C555.901 801.41 555.884 801.675 555.842 801.937C555.806 802.163 555.756 802.387 555.713 802.612Z"/><path fill="#81765B" d="M573.576 897.022C576.124 899.428 578.316 901.607 581.707 902.781C590.449 905.807 601.323 905.922 610.534 906.512C634.899 908.049 659.321 908.493 683.726 907.843C691.494 907.632 699.462 906.036 707.148 906.109C706.882 906.588 707.098 906.266 706.268 906.871C676.945 910.553 640.17 909.534 610.366 907.324C600.95 906.626 590.754 906.142 581.634 903.628C578.148 902.668 575.291 900.144 573.576 897.022Z"/><path fill="#F8DBAC" d="M854.366 535.727C856.046 535.635 857.729 535.624 859.41 535.693C864.837 535.913 868.478 538.181 872.08 542.074C872.41 543.69 872.738 545.301 872.709 546.958C872.309 569.139 842.658 561.054 833.606 570.688C831.055 573.402 831.799 577.961 831.999 581.349C833.555 583.739 835.005 585.286 837.696 586.375C847.641 590.4 861.151 584.826 870.207 580.728C871.921 583.744 873.603 586.779 875.78 589.492C880.188 594.984 889.755 600.191 896.969 600.39C901.159 600.506 905.358 599.906 909.538 600.36C909.617 600.62 909.731 600.872 909.776 601.141C910.366 604.69 905.74 613.198 903.848 616.119C896.874 626.885 883.456 634.491 870.593 634.728C865.731 634.818 860.595 633.384 856.028 635.715C850.333 638.621 845.455 645.77 840.705 650.129C823.143 666.245 801.92 676.749 778.752 681.936C774.076 683.504 767.35 683.69 762.38 684.135C741.499 686.004 718.357 680.991 700.287 670.367C694.223 666.802 688.676 662.376 683.273 657.892C688.882 650.478 695.3 643.534 701.412 636.528C715.204 641.224 727.763 642.782 742.292 640.733C765.341 637.484 789.305 624.543 803.61 606.013C806.838 601.832 809.916 597.375 811.321 592.223C814.992 578.759 810.467 564.559 819.732 552.419C828.205 541.318 841.116 537.489 854.366 535.727Z"/><path fill="#F8DBAC" d="M216.806 730.902C222.245 723.836 227.972 717.249 234.586 711.235C238.593 707.59 243.03 704.349 246.918 700.598C251.587 704.937 255.957 709.536 260.541 713.956C264.132 717.418 268.278 720.602 271.336 724.553C268.556 729.357 263.525 732.794 259.97 737.073C258.282 739.106 255.911 743.65 254.386 745.114C251.119 751.843 247.732 759.821 250.241 767.378C251.712 771.811 255.092 774.567 259.196 776.511C263.555 778.576 268.563 779.89 273.139 781.446C290.372 787.308 310.427 794.526 317.427 813.154C318.483 815.964 319.097 818.951 319.507 821.918C319.678 825.254 320.57 830.017 318.94 833.036C319.069 833.993 319.128 833.734 318.916 834.608C315.736 847.71 306.933 858.164 295.384 864.758C281.599 872.627 263.093 874.652 247.835 870.358C239.763 868.086 231.142 863.26 227.032 855.68C225.507 852.868 224.179 849.137 225.252 845.946C228.806 835.381 246.728 838.426 254.885 834.119C257.14 832.928 259.292 831.005 259.963 828.453C260.809 825.234 259.666 822.255 258.061 819.527L257.707 818.937C248.778 813.264 238.227 810.207 229.04 804.401C218.056 797.461 209.084 786.787 206.334 773.914C202.792 757.338 207.837 744.653 216.806 730.902Z"/><path fill="#F9BE76" d="M216.806 730.902C222.245 723.836 227.972 717.249 234.586 711.235C238.593 707.59 243.03 704.349 246.918 700.598C251.587 704.937 255.957 709.536 260.541 713.956C264.132 717.418 268.278 720.602 271.336 724.553C268.556 729.357 263.525 732.794 259.97 737.073C258.282 739.106 255.911 743.65 254.386 745.114C254.215 744.591 254.216 744.473 253.828 743.972C252.504 742.26 249.453 740.466 247.658 739.204C236.171 731.126 230.388 730.973 216.806 730.902Z"/><path fill="#F9BE76" d="M318.94 833.036C318.027 831.88 318.128 830.132 318.07 828.719C317.975 826.387 317.845 823.736 319.507 821.918C319.678 825.254 320.57 830.017 318.94 833.036Z"/><path fill="#F8DBAC" d="M402.931 814.992C404.57 806.594 405.57 798.032 406.699 789.551C407.273 785.238 407.518 780.541 408.868 776.395C411.135 775.184 415.44 776.13 417.931 776.366C425.586 777.093 433.129 776.223 440.762 775.637C442.413 775.51 445.401 775.025 446.908 775.674C447.215 775.807 447.494 775.996 447.788 776.157C448.464 778.519 448.717 780.881 448.787 783.33C449.101 794.32 448.129 805.507 447.922 816.511C447.781 824.008 448.556 832.275 447.503 839.66L446.466 870.666C446.252 877.94 446.483 885.739 445.231 892.909C444.767 895.568 443.921 898.588 442.137 900.689C437.856 905.73 427.024 906.204 420.925 906.848C409.023 908.105 334.467 912.807 327.356 905.136C326.043 903.72 326.616 900.245 326.837 898.392C329.246 878.181 348.983 865.641 367.046 860.628C375.212 858.362 386.816 857.942 393.483 852.356C399.159 847.601 402.085 823.371 402.875 815.586L402.931 814.992Z"/><path fill="#F9BE76" d="M402.931 814.992C404.57 806.594 405.57 798.032 406.699 789.551C407.273 785.238 407.518 780.541 408.868 776.395C411.135 775.184 415.44 776.13 417.931 776.366C425.586 777.093 433.129 776.223 440.762 775.637C442.413 775.51 445.401 775.025 446.908 775.674C447.215 775.807 447.494 775.996 447.788 776.157C448.464 778.519 448.717 780.881 448.787 783.33C449.101 794.32 448.129 805.507 447.922 816.511C447.781 824.008 448.556 832.275 447.503 839.66L447.274 837.444L447.254 814.826C446.936 815.401 446.979 815.171 446.94 815.795C446.862 817.057 446.877 818.323 446.644 819.573C445.644 824.921 445.883 830.649 445.747 836.105C445.231 837.345 445.245 839.467 445.093 840.844C436.636 829.471 423.019 819.234 409.282 815.35C407.344 814.801 404.69 813.992 402.931 814.992Z"/><path fill="#F8DBAC" d="M881.667 434.873C882.701 435.066 883.762 435.246 884.753 435.615C886.595 436.3 887.937 437.766 888.713 439.545C895.398 454.869 871.203 497.345 864.5 513.116C854.75 514.006 848.966 513.125 839.397 516.484C836.588 517.149 833.737 518.312 830.984 519.218C835.124 509.976 840.135 500.921 844.698 491.875C850.822 479.735 856.703 467.414 863.422 455.587C867.404 448.579 873.363 437.153 881.667 434.873Z"/><path fill="#F8DBAC" d="M931.505 530.306C933.008 531.094 934.412 533.176 935.36 534.602C938.464 539.272 938.385 545.377 937.222 550.682C935.019 560.734 927.81 569.727 919.109 575.062C912.129 579.342 904.187 580.756 896.217 578.849C892.912 577.457 889.934 575.921 887.783 572.976C887.654 572.262 887.201 571.486 887.968 570.977C890.224 569.478 894.712 568.544 897.361 567.542C900.873 566.196 904.248 564.516 907.438 562.524C920.023 554.837 925.302 542.958 931.505 530.306Z"/><path fill="#F8DBAC" d="M901.247 507.155C901.382 507.152 901.517 507.144 901.651 507.145C904.598 507.168 906.799 507.75 908.836 510.012C911.641 513.126 911.944 518.049 911.538 522.01C910.62 530.964 905.413 540.19 898.39 545.796C896.623 547.207 894.743 548.554 892.438 548.306C891.875 537.932 888.475 529.567 881.15 522.193C888.257 515.337 891.17 510.132 901.247 507.155Z"/><path fill="#25221B" fill-opacity="0.79607844" d="M299.515 767.983C302.225 768.615 304.642 770.092 307.072 771.413C317.141 776.888 325.663 784.156 331.749 793.967C337.131 802.56 340.272 812.367 340.884 822.489C340.793 824.02 340.998 826.606 340.201 827.874C340.145 823.461 339.843 819.213 339.01 814.872C335.862 798.467 326.367 784.714 312.505 775.466C308.575 772.844 303.996 771.125 300.134 768.423L299.515 767.983Z"/><path fill="#3B382B" fill-opacity="0.75294119" d="M313.019 752.225C317.607 752.983 322.133 755.824 326.391 757.667C332.903 760.484 339.783 763.23 346.683 764.909L346.536 765.68C336.016 763.544 322.26 757.576 313.019 752.225Z"/><path fill="#221F1A" fill-opacity="0.92156863" d="M381.174 775.486C381.042 787.016 378.764 801.833 376.602 813.206C376.278 808.914 379.723 779.079 381.174 775.486Z"/><path fill="#25221B" fill-opacity="0.80392158" d="M356.286 767.369C362.997 768.842 370.074 770.015 376.635 772.032C369.649 771.974 362.337 769.572 355.61 767.828L356.286 767.369Z"/><path fill="#25221B" fill-opacity="0.75686276" d="M345.641 840.192C349.537 837.336 355.59 836.145 360.204 834.903L360.456 835.351C355.808 837.327 350.551 839.017 345.641 840.192Z"/><path fill="#221F1A" fill-opacity="0.91764706" d="M340.884 822.489C341.057 825.794 341.197 837.42 339.047 839.631C338.989 839.691 338.912 839.731 338.844 839.782C339.356 835.82 339.809 831.85 340.201 827.874C340.998 826.606 340.793 824.02 340.884 822.489Z"/><path fill="#25221B" fill-opacity="0.82352942" d="M374.983 822.145C374.874 825.314 375.368 830.695 373.062 833.137C372.11 834.145 370.251 834.065 368.941 834.068L368.783 833.535L371.821 833.004C374.469 831.104 373.968 825.805 374.815 822.732L374.983 822.145Z"/><path fill="#3B382B" fill-opacity="0.6156863" d="M346.683 764.909C349.879 765.746 353.08 766.566 356.286 767.369L355.61 767.828C352.503 767.287 349.556 766.592 346.536 765.68L346.683 764.909Z"/><path fill="#3B382B" fill-opacity="0.61176473" d="M360.204 834.903C362.972 833.92 365.845 833.373 368.783 833.535L368.941 834.068C365.983 834.14 363.328 834.697 360.456 835.351L360.204 834.903Z"/><path fill="#25221B" fill-opacity="0.23529412" d="M266.499 901.45C268.888 899.893 272.947 900.251 275.717 900.448C273.069 901.575 269.346 901.996 266.499 901.45Z"/><path fill="#25221B" fill-opacity="0.52941179" d="M290.854 898.278C292.436 898.08 293.72 897.966 295.295 898.25C292.338 898.853 289.509 899.084 286.499 899.228C285.229 899.35 284.216 899.553 282.974 899.183C285.611 898.523 288.156 898.4 290.854 898.278Z"/><path fill="#25221B" fill-opacity="0.1882353" d="M241.068 904.084C243.16 903.762 245.319 903.699 247.431 903.55L249.305 904.284C247.038 904.445 244.794 904.619 242.543 904.943L241.068 904.084Z"/><path fill="#221F1A" fill-opacity="0.52549022" d="M247.431 903.55C249.969 903.355 252.504 902.959 255.03 902.634L257.45 903.229C254.743 903.57 251.994 903.834 249.305 904.284L247.431 903.55Z"/><path fill="#12100D" fill-opacity="0.81568629" d="M255.03 902.634C258.834 902.161 262.665 901.575 266.499 901.45C263.498 902.262 260.522 902.769 257.45 903.229L255.03 902.634Z"/><path fill="#221F1A" fill-opacity="0.53333336" d="M235.517 906.175C233.825 906.76 231.783 907.758 229.981 907.559C231.581 906.446 233.421 906.022 235.268 905.476L235.517 906.175Z"/><path fill="#12100D" fill-opacity="0.69411767" d="M241.068 904.084L242.543 904.943C240.082 905.142 237.901 905.55 235.517 906.175L235.268 905.476C237.123 904.858 239.158 904.526 241.068 904.084Z"/><path fill="#88D0C2" d="M401.209 241.857C407.36 220.124 414.105 198.528 420.426 176.838C423.597 165.957 427.598 148.709 431.956 138.784C433.33 135.655 434.558 133.634 437.914 132.433C440.011 131.683 441.821 131.724 443.998 132.115C454.444 133.991 464.994 137.342 475.231 140.174L514.983 150.851L550.882 160.478C560.595 163.027 571.247 165.051 580.281 169.501C583.277 173.448 584.43 175.706 583.708 180.831C582.575 188.877 579.39 197.151 576.972 204.933C569.798 228.013 562.05 245.774 547.843 265.43C544.002 270.744 539.426 275.639 535.685 280.955C530.724 287.258 524.841 293.052 519.315 298.871C504.316 314.664 488.367 330.304 471.875 344.55C469.369 346.596 466.89 348.635 464.531 350.85L462.732 352.428C447.835 364.873 432.5 376.783 416.755 388.137C402.562 398.58 388.154 408.729 373.541 418.576C363.799 425.222 353.639 432.523 343.067 437.79C344.914 430.22 347.847 422.661 350.165 415.205C354.389 401.349 358.543 387.472 362.628 373.574C368.464 352.277 375.158 331.112 381.422 309.927L401.209 241.857Z"/><path fill="#68AEA9" d="M362.628 373.574C368.464 352.277 375.158 331.112 381.422 309.927L401.209 241.857L401.764 243.423C405.594 244.772 409.758 245.487 413.694 246.505C420.583 248.286 427.436 250.222 434.298 252.104L503.202 271.155C509.801 272.932 530.072 277.109 534.758 280.312C534.95 280.443 535.145 280.568 535.335 280.7C535.453 280.782 535.568 280.87 535.685 280.955C530.724 287.258 524.841 293.052 519.315 298.871C504.316 314.664 488.367 330.304 471.875 344.55C469.369 346.596 466.89 348.635 464.531 350.85L462.732 352.428C447.835 364.873 432.5 376.783 416.755 388.137C402.562 398.58 388.154 408.729 373.541 418.576C363.799 425.222 353.639 432.523 343.067 437.79C344.914 430.22 347.847 422.661 350.165 415.205C354.389 401.349 358.543 387.472 362.628 373.574Z"/><path fill="#4C9B9A" d="M343.067 437.79C344.914 430.22 347.847 422.661 350.165 415.205C354.389 401.349 358.543 387.472 362.628 373.574L363.334 374.635C363.511 374.658 363.689 374.679 363.866 374.704C370.758 375.666 377.8 377.926 384.552 379.649C393.978 382.055 404.719 384.051 413.622 387.903C414.847 388.434 415.455 388.395 416.755 388.137C402.562 398.58 388.154 408.729 373.541 418.576C363.799 425.222 353.639 432.523 343.067 437.79Z"/><path fill="#F9AB61" d="M128.308 343.18C120.659 330.621 83.8589 274.732 81.8539 265.353C81.2337 262.452 81.8567 260.156 83.5653 257.748C88.476 250.826 105.313 240.441 112.687 235.151L144.311 212.331C159.304 201.396 174.928 188.584 190.471 178.663C192.839 177.151 195.179 175.964 197.997 175.557C201.621 175.034 204.983 175.822 207.918 178.028C215 183.351 222.165 200.068 224.507 208.471C226.39 215.224 227.212 222.481 228.371 229.399C230.546 242.367 232.641 255.349 234.656 268.343C237.424 287.696 240.44 307.014 243.703 326.29C245.135 335.064 247.027 344.02 247.936 352.85C252.265 372.762 254.858 393.324 258.011 413.466C261.806 437.712 266.023 461.917 269.608 486.192C270.206 489.691 270.978 493.259 271.126 496.806C266.55 501.994 248.513 521.055 248.363 526.769C247.759 527.367 247.193 527.848 246.483 528.317C246.343 528.272 246.196 528.247 246.063 528.183C244.546 527.45 172.92 416.459 169.394 408.47C155.823 386.629 142.127 364.865 128.308 343.18Z"/><path fill="#F9BE76" d="M128.308 343.18C120.659 330.621 83.8589 274.732 81.8539 265.353C81.2337 262.452 81.8567 260.156 83.5653 257.748C88.476 250.826 105.313 240.441 112.687 235.151L144.311 212.331C159.304 201.396 174.928 188.584 190.471 178.663C192.839 177.151 195.179 175.964 197.997 175.557C201.621 175.034 204.983 175.822 207.918 178.028C215 183.351 222.165 200.068 224.507 208.471C226.39 215.224 227.212 222.481 228.371 229.399C230.546 242.367 232.641 255.349 234.656 268.343L234.028 271.352C233.755 271.436 233.48 271.514 233.209 271.604C226.452 273.847 201.009 293.154 193.596 298.389C179.482 308.354 165.169 317.976 151.143 328.079C145.923 331.839 133.635 341.504 128.308 343.18Z"/><path fill="#88B071" d="M247.936 352.85C252.265 372.762 254.858 393.324 258.011 413.466C261.806 437.712 266.023 461.917 269.608 486.192C270.206 489.691 270.978 493.259 271.126 496.806C266.55 501.994 248.513 521.055 248.363 526.769C247.759 527.367 247.193 527.848 246.483 528.317C246.343 528.272 246.196 528.247 246.063 528.183C244.546 527.45 172.92 416.459 169.394 408.47C169.466 408.496 169.546 408.506 169.609 408.549C170.273 409.006 170.65 409.381 171.399 409.792C196.964 392.862 221.917 374.942 247.326 357.763C248.191 356.528 247.925 354.344 247.936 352.85Z"/><path fill="#F5A4A0" d="M255.04 259.223C253.602 256.414 240.33 169.593 239.377 160.813C239.176 158.959 239.146 157.022 239.527 155.188C240.166 152.106 241.968 149.987 244.554 148.294C245.942 147.385 247.38 146.969 248.984 146.627C264.752 143.268 280.971 141.275 296.845 138.341L348.28 129.047C356.81 127.491 365.335 125.51 373.904 124.242C377.216 123.752 381.395 123.109 384.657 123.933C386.71 124.452 388.831 125.72 389.815 127.657C390.904 129.801 391.142 133.745 391.232 136.164C391.582 145.49 390.635 155.145 390.476 164.506C390.267 176.782 390.897 193.166 389.084 205.027C387.664 214.319 384.177 223.714 381.381 232.676C378.689 245.628 373.447 260.282 369.655 273.206C364.569 290.543 360.109 308.23 354.579 325.412C353.769 326.814 353.178 328.101 352.661 329.637C333.226 332.576 313.86 335.961 294.579 339.788C286.319 341.359 276.975 342.234 269.111 345.192L267.811 344.144C267.402 331.227 253.657 263.31 255.04 259.223Z"/><path fill="#EB808C" d="M255.04 259.223C255.811 258.427 255.628 257.654 255.712 256.581C256.457 255.451 256.788 255.515 258.101 255.145C267.042 252.627 279.663 251.03 289.031 249.181C314.388 244.225 339.777 239.44 365.198 234.828C370.451 233.915 376.28 233.825 381.381 232.676C378.689 245.628 373.447 260.282 369.655 273.206C364.569 290.543 360.109 308.23 354.579 325.412C353.769 326.814 353.178 328.101 352.661 329.637C333.226 332.576 313.86 335.961 294.579 339.788C286.319 341.359 276.975 342.234 269.111 345.192L267.811 344.144C267.402 331.227 253.657 263.31 255.04 259.223Z"/><path fill="#B57689" d="M352.661 329.637C353.178 328.101 353.769 326.814 354.579 325.412C352.363 334.946 349.067 344.308 346.355 353.712L328.909 414.959C327.096 421.5 322.611 433.99 321.832 439.892C320.151 445.355 318.729 451.222 316.516 456.472C307.564 463.552 298.655 470.793 290.934 479.241C289.209 474.221 288.342 469.118 287.668 463.866C285.328 451.91 283.637 439.743 281.617 427.721L267.811 344.144L269.111 345.192C276.975 342.234 286.319 341.359 294.579 339.788C313.86 335.961 333.226 332.576 352.661 329.637Z"/><path fill="#F9BE76" d="M898.711 282.247C902.413 285.39 905.068 289.945 908.435 293.486C913.654 298.975 920.142 303.403 926.22 307.884C920.08 312.784 913.436 318.121 908.426 324.225C905.24 328.106 902.874 333.334 899.217 336.709C894.485 330.259 890.28 324.131 884.312 318.672C881.062 315.699 873.104 311.212 871.275 307.807C873.184 305.305 877.769 303.323 880.431 301.411C887.707 296.185 893.76 289.685 898.711 282.247Z"/><path fill="#221F1A" fill-opacity="0.90196079" d="M807.924 361.541C812.964 425.28 792.557 490.272 763.694 546.441C755.802 561.799 747.077 577.857 735.928 591.12C735.885 591.171 735.836 591.216 735.79 591.265C737.421 586.685 743.39 579.651 746.271 575.212C750.965 568.052 755.324 560.679 759.334 553.115C784.117 506.51 803.477 453.159 807.161 400.133L807.551 395.028C808.074 392.498 807.97 390.05 807.925 387.484C808.167 379.807 807.841 372.208 807.349 364.55L807.924 361.541Z"/><path fill="#25221B" fill-opacity="0.87450981" d="M778.939 599.122C780.767 595.047 786.813 590.444 788.927 585.102C791.096 579.619 790.786 572.457 791.568 566.613C792.625 558.715 794.301 550.579 796.482 542.908C798.114 537.283 800.112 531.771 802.463 526.407C807.898 514.071 843.342 441.558 850.566 434.364C849.442 437.546 847.285 440.133 845.604 443.033C838.403 455.949 831.882 469.353 825.106 482.502C810.135 511.556 794.863 538.283 791.718 571.544C791.382 575.094 791.314 578.712 790.366 582.168C789.123 586.697 783.646 597.589 778.939 599.122Z"/><path fill="#221F1A" fill-opacity="0.75294119" d="M547.324 891.966C541.169 859.447 535.34 826.867 529.838 794.232C527.987 783.025 524.654 771.39 524.524 760.051C526.481 762.619 526.049 769.381 526.673 772.627L538.823 839.074C540.514 848.583 541.656 858.209 543.736 867.643C544.559 875.729 547.485 883.769 547.899 891.828L547.521 892.111L547.324 891.966Z"/><path fill="#25221B" fill-opacity="0.75686276" d="M88.8632 321.413L89.6014 321.398C113.124 357.14 134.904 394.054 158.098 430.016L157.558 430.682C146.468 414.603 136.682 397.384 126.179 380.902L102.245 342.797C97.7894 335.709 92.9072 328.734 88.8632 321.413Z"/><path fill="#25221B" fill-opacity="0.35294119" d="M465.179 939.573C480.431 938.86 495.971 939.698 511.246 939.732C527.445 939.767 543.847 938.916 560.011 939.538C556.826 939.827 552.71 939.554 549.71 940.447C542.807 941.262 535.078 940.589 528.069 940.587C516.596 940.585 504.792 941.134 493.358 940.347L492.828 939.957C490.52 939.833 488.494 940.084 486.226 940.449C481.524 941.09 476.031 940.604 471.268 940.6C463.426 940.594 455.036 941.105 447.252 940.12C453.133 939.74 459.411 940.831 465.179 939.573Z"/><path fill="#25221B" fill-opacity="0.80000001" d="M463.246 112.148C491.143 120.792 519.489 127.527 547.52 135.633C553.284 137.3 563.798 138.94 568.554 141.195C567.679 141.781 567.139 141.48 566.119 141.28C554.528 139.007 542.868 134.971 531.429 131.907C508.406 125.741 485.37 119.879 462.575 112.877L463.246 112.148Z"/><path fill="#25221B" fill-opacity="0.73333335" d="M286.514 116.452C299.157 112.609 319.028 110.135 332.645 107.712C347.914 104.995 363.173 101.227 378.612 99.6032L379.201 100.215C357.357 103.125 335.55 107.785 313.887 111.864C306.99 113.163 292.87 116.879 286.514 116.452Z"/><path fill="#3B382B" fill-opacity="0.66274512" d="M623.768 750.377L624.011 750.29C627.199 759.499 646.268 820.19 645.763 825.213C644.122 820.987 643.244 816.32 641.724 811.989C640.468 806.659 638.639 801.475 637.085 796.226C634.975 789.097 633.027 781.938 630.738 774.861C628.171 766.925 625.064 758.62 623.768 750.377Z"/><path fill="#25221B" fill-opacity="0.74901962" d="M683.149 198.596C707.786 207.669 734.481 221.605 752.223 241.487L751.322 241.68C736.203 224.074 704.339 206.232 682.382 199.214L683.149 198.596Z"/><path fill="#12100D" fill-opacity="0.78823531" d="M600.618 938.553C622.08 938.18 643.517 936.777 664.984 936.307L669.277 936.955L666.561 937.104C663.287 937.03 660.155 937.046 656.899 937.437C634.51 938.1 612.085 939.709 589.687 939.402L589.568 939.12L594.058 939.071C596.332 939.104 598.381 938.969 600.618 938.553Z"/><path fill="#221F1A" fill-opacity="0.8392157" d="M898.661 414.588C905.468 418.719 908.73 427.558 910.526 434.994C911.089 437.329 911.507 439.863 911.591 442.265C911.55 445.525 911.44 448.797 911.628 452.054C910.353 460.555 908.022 471.02 903.389 478.395L903.274 476.392C907.415 472.045 910.957 453.208 911.029 447.12C911.173 435.091 907.04 423.27 898.661 414.588Z"/><path fill="#221F1A" fill-opacity="0.93333334" d="M474.795 771.54C476.523 770.853 477.958 770.513 479.813 770.386C478.406 770.885 477.005 771.406 475.572 771.829C474.576 794.05 474.069 816.304 472.921 838.515C472.638 836.484 472.555 834.406 472.402 832.361L472.557 828.014C472.915 825.617 472.961 823.34 472.939 820.928C472.89 813.975 473.301 806.97 473.541 800.019C474.058 796.966 474.01 794.062 473.935 790.981C474.361 784.513 474.536 778.017 474.795 771.54Z"/><path fill="#25221B" fill-opacity="0.75686276" d="M798.769 318.751C802.696 332.784 807.044 346.867 807.924 361.541L807.349 364.55C806.255 349.426 802.596 334.026 798.124 319.574L798.769 318.751Z"/><path fill="#25221B" fill-opacity="0.73333335" d="M142.782 184.673L143.058 185.513C129.082 196.003 114.936 207.341 100.163 216.666L99.8384 216.045C114.196 205.736 128.987 195.721 142.782 184.673Z"/><path fill="#25221B" fill-opacity="0.74509805" d="M220.199 621.347C221.891 641.931 224.032 652.829 231.222 672.449C229.275 670.704 228.443 667.005 227.619 664.568C223.083 651.156 220.734 638.33 219.507 624.257L220.199 621.347Z"/><path fill="#25221B" fill-opacity="0.72941178" d="M405.707 938.287C414.968 938.678 424.211 939.075 433.482 939.058C438.272 939.86 443.405 939.538 448.253 939.381L465.179 939.573C459.411 940.831 453.133 939.74 447.252 940.12L431.242 939.933C427.962 939.236 424.622 939.487 421.292 939.576C414.909 939.573 408.564 939.28 402.191 938.95L405.707 938.287Z"/><path fill="#12100D" fill-opacity="0.68235296" d="M263.498 928.884C273.265 930.016 283.094 931.316 292.899 932.029C299.193 932.486 306.092 932.203 312.257 933.395L312.443 934.026C296.405 933.994 279.388 931.901 263.502 929.636L263.498 928.884Z"/><path fill="#3B382B" fill-opacity="0.79215688" d="M665.13 833.266C681.709 836.166 697.919 843.697 710.227 855.2L709.452 855.586C699.085 845.527 684.549 838.504 670.522 835.225C668.778 834.556 666.757 834.32 664.924 833.96L665.13 833.266Z"/><path fill="#25221B" fill-opacity="0.81960785" d="M636.489 186.217C652.466 189.221 668.041 192.426 683.149 198.596L682.382 199.214C667.7 192.634 651.337 189.802 635.627 186.838L636.489 186.217Z"/><path fill="#25221B" fill-opacity="0.7647059" d="M766.991 708.405C779.883 707.121 793.472 704.059 805.428 699.055C807.044 698.379 812.79 695.575 814.039 696.237C800.253 702.891 785.425 706.746 770.296 708.904L766.991 708.405Z"/><path fill="#221F1A" fill-opacity="0.80784315" d="M949.671 519.864C956.245 526.638 957.728 537.657 957.632 546.743C957.573 552.333 957.072 563.058 953.385 567.31L952.302 567.623C952.993 564.7 954.735 562.21 955.483 559.257C958.175 548.627 957.795 533.731 952.06 524.069C951.314 522.812 950.379 521.654 949.471 520.512L949.671 519.864Z"/><path fill="#25221B" fill-opacity="0.79215688" d="M689.741 695.756C703.887 702.5 721.482 707.224 737.093 708.566L735.116 709.258C718.973 706.711 704.611 702.609 689.451 696.513L689.741 695.756Z"/><path fill="#12100D" fill-opacity="0.81960785" d="M673.315 936.004C686.98 934.945 700.699 934.324 714.379 933.43C716.134 933.486 718.109 933.38 719.793 933.868C704.346 934.955 688.917 936.097 673.435 936.553L673.315 936.004Z"/><path fill="#12100D" fill-opacity="0.55686277" d="M767.219 928.942C776.856 927.585 786.771 926.573 796.279 924.525C800.814 923.547 806.281 920.57 810.693 920.311C803.627 924.832 775.671 929.763 767.051 929.548L767.219 928.942Z"/><path fill="#25221B" fill-opacity="0.7764706" d="M170.929 450.811C175.937 459.116 190.208 479.915 192.732 487.483C189.544 483.813 187.053 478.844 184.508 474.674L170.388 451.509L170.929 450.811Z"/><path fill="#25221B" fill-opacity="0.58823532" d="M224.093 921.143C228.556 921.869 232.761 923.871 237.192 924.797C245.865 926.611 254.808 927.188 263.498 928.884L263.502 929.636C261.843 929.537 260.172 929.221 258.526 928.979C247.816 927.51 233.496 926.56 224.093 921.143Z"/><path fill="#25221B" fill-opacity="0.71764708" d="M161.494 171.626C161.791 170.997 161.614 171.201 162.173 170.741C169.193 164.97 185.886 151.693 194.749 152.548C193.911 153.182 193.396 153.252 192.402 153.417C180.234 155.434 166.831 170.841 161.494 171.626Z"/><path fill="#3B382B" fill-opacity="0.16862746" d="M240.593 889.323C246.534 889.414 254.354 891.455 260.835 891.727C264.938 891.899 269.176 890.616 273.224 891.069L275.837 891.626C266.06 893.55 254.176 892.57 244.392 890.698C243.202 890.47 241.263 890.314 240.593 889.323Z"/><path fill="#25221B" fill-opacity="0.93333334" d="M480.49 894.061C478.753 894.049 471.17 894.45 469.996 893.51L470.656 893.618L472.514 893.337C475.259 893.486 477.936 893.527 480.684 893.421C488.657 893.511 496.631 893.503 504.603 893.398C513.01 893.822 521.675 892.865 530.012 893.888L516.711 894.093C504.852 893.462 492.379 893.764 480.49 894.061Z"/><path fill="#25221B" fill-opacity="0.81176472" d="M616.436 727.303C615.626 724.532 613.445 719.34 613.892 716.665C615.781 719.651 623.349 745.631 624.011 750.29L623.768 750.377C621.194 742.729 619.148 734.896 616.436 727.303Z"/><path fill="#25221B" fill-opacity="0.92941177" d="M223.178 582.668L223.702 583.222C221.196 595.45 219.062 608.863 220.199 621.347L219.507 624.257C218.989 610.375 219.752 596.16 223.178 582.668Z"/><path fill="#221F1A" fill-opacity="0.85490197" d="M183.471 755.089C183.46 754.647 183.445 754.205 183.461 753.763C183.79 744.399 190.977 726.548 197.854 720.094C191.159 731.49 186.229 742.033 183.471 755.089Z"/><path fill="#25221B" fill-opacity="0.58431375" d="M714.379 933.43C725.736 931.302 739.489 932.318 751.368 930.573L752.151 931.26L751.055 931.381C744.827 932.146 738.548 932.472 732.294 932.971C728.211 933.297 723.88 933.969 719.793 933.868C718.109 933.38 716.134 933.486 714.379 933.43Z"/><path fill="#12100D" fill-opacity="0.78431374" d="M312.257 933.395C324.197 933.843 336.124 935.253 348.06 935.5L346.238 936.226C334.981 935.575 323.673 935.04 312.443 934.026L312.257 933.395Z"/><path fill="#25221B" fill-opacity="0.63921571" d="M430.007 108.683C435.738 105.415 441.626 106.134 447.715 107.789C452.833 109.18 458.032 111.265 463.246 112.148L462.575 112.877C449.451 110.374 444.06 105.181 430.007 108.683Z"/><path fill="#25221B" fill-opacity="0.83529413" d="M362.637 936.366C372.681 936.735 382.751 936.984 392.784 937.581L389.615 938.211C379.081 937.218 368.314 937.697 357.724 936.919C359.34 936.619 361 936.519 362.637 936.366Z"/><path fill="#25221B" fill-opacity="0.7764706" d="M223.178 582.668C224.441 576.068 229.543 555.968 233.929 552.006C233.145 555.408 231.115 558.707 229.91 562.023C227.41 568.902 225.38 576.099 223.702 583.222L223.178 582.668Z"/><path fill="#25221B" fill-opacity="0.71764708" d="M755.677 244.725C761.482 250.878 771.574 261.711 775.168 269.063L774.386 269.153C769.33 260.901 762.152 252.443 755.302 245.644L755.677 244.725Z"/><path fill="#81765B" fill-opacity="0.28627452" d="M636.419 695.82C637.845 694.279 652.669 681.292 653.446 680.973C653.779 680.836 654.164 680.932 654.524 680.912C653.366 683.51 640.897 694.118 637.93 695.404C637.516 695.583 636.819 695.724 636.419 695.82Z"/><path fill="#25221B" fill-opacity="0.7764706" d="M777.993 272.911C782.922 281.351 788.506 290.892 791.629 300.15L790.85 300.081C787.205 290.939 782.318 281.932 777.303 273.468L777.993 272.911Z"/><path fill="#3B382B" fill-opacity="0.60784316" d="M856.057 426.912C856.525 425.263 857.702 424.097 858.831 422.863C863.736 417.5 872.681 410.152 880.1 409.807C872.494 412.495 867.069 416.378 861.279 421.935C859.619 423.527 857.951 425.637 856.057 426.912Z"/><path fill="#221F1A" fill-opacity="0.32549021" d="M738.254 899.17C747.161 900.342 756.384 900.28 765.2 901.937L765.052 902.695C755.472 902.068 745.878 900.726 736.298 899.916L738.254 899.17Z"/><path fill="#25221B" fill-opacity="0.56862748" d="M230.38 126.718C236.559 124.203 243.054 123.582 249.607 122.618L250.188 123.213C240.438 124.823 232.133 125.762 223.947 131.778C225.399 129.202 227.878 128.051 230.38 126.718Z"/><path fill="#25221B" fill-opacity="0.60000002" d="M737.093 708.566C745.008 709.157 754.244 709.835 762.077 708.537L764.459 709.175C755.007 710.431 744.594 710.267 735.116 709.258L737.093 708.566Z"/><path fill="#25221B" fill-opacity="0.81960785" d="M515.688 761.382L515.552 762.154C508.021 764.048 495.219 769.008 487.936 768.534L492.833 767.029C500.596 765.68 508.027 763.17 515.688 761.382Z"/><path fill="#3B382B" fill-opacity="0.76078433" d="M741.321 617.461C750.818 617.548 759.246 610.673 767.955 607.787C761.345 613.014 749.827 617.651 741.443 618.17L741.321 617.461Z"/><path fill="#25221B" fill-opacity="0.79607844" d="M73.6924 295.82C78.2638 302.211 83.9259 311.031 87.5859 317.983L86.8044 318.104C82.6452 310.8 77.7079 303.809 73.3484 296.593L73.6924 295.82Z"/><path fill="#25221B" fill-opacity="0.7647059" d="M58.9032 270.241C58.8224 270.171 58.7296 270.113 58.6609 270.032C56.9219 267.965 57.1357 263.048 57.3593 260.408C57.7929 255.286 59.3528 248.562 63.3535 245.127C60.179 251.43 57.886 256.997 58.2062 264.217C58.2925 266.161 58.9674 268.361 58.9032 270.241Z"/><path fill="#3B382B" fill-opacity="0.51764709" d="M205.787 709.026C208.08 705.99 219.304 693.778 222.54 692.972C218.405 698.746 211.555 703.976 206.553 709.133L205.787 709.026Z"/><path fill="#12100D" fill-opacity="0.83137256" d="M211.899 518.492L212.398 517.74C217.095 525.025 221.707 532.364 226.234 539.755L225.46 540.038C221.353 532.722 216.574 525.459 211.899 518.492Z"/><path fill="#25221B" fill-opacity="0.63529414" d="M158.098 430.016C162.414 436.783 166.221 444.355 170.929 450.811L170.388 451.509C165.688 444.865 162.257 437.347 157.558 430.682L158.098 430.016Z"/><path fill="#12100D" fill-opacity="0.67843139" d="M204.921 856.22C203.717 855.014 203.667 851.183 203.567 849.515C203.219 843.734 204.258 835.58 208.232 831.201C205.288 838.131 204.413 843.437 204.594 850.944C204.635 852.636 205.065 854.576 204.921 856.22Z"/><path fill="#221F1A" fill-opacity="0.82745099" d="M919.199 351.422C919.302 352.261 919.362 351.96 919.099 352.721C916.416 360.462 913.937 368.562 912.834 376.698C912.776 376.572 912.701 376.453 912.658 376.32C911.368 372.282 916.967 355.346 919.199 351.422Z"/><path fill="#12100D" fill-opacity="0.27450982" d="M785.367 904.676C792.632 903.515 801.784 906.138 808.411 909.009C805.004 908.958 800.8 907.308 797.428 906.59C793.448 905.742 789.398 905.222 785.367 904.676Z"/><path fill="#25221B" fill-opacity="0.69803923" d="M201.402 500.256C205.364 505.938 208.646 511.944 212.398 517.74L211.899 518.492C208.324 512.589 204.747 506.719 200.859 501.015L201.402 500.256Z"/><path fill="#221F1A" fill-opacity="0.81960785" d="M880.575 357.233C882.597 358.914 886.106 375.407 887.347 379.29C885.075 376.49 881.026 361.103 880.575 357.233Z"/><path fill="#3B382B" fill-opacity="0.64705884" d="M822.269 691.288C827.936 687.176 834.349 683.968 840.11 679.887L840.086 681.28C834.071 684.044 828.195 688.543 822.525 692.035L822.269 691.288Z"/><path fill="#221F1A" fill-opacity="0.21568628" d="M765.2 901.937C771.061 902.365 777.575 902.834 783.257 904.286C779.808 904.455 776.375 904.121 772.938 903.864C770.351 903.293 767.678 903.04 765.052 902.695L765.2 901.937Z"/><path fill="#12100D" fill-opacity="0.1254902" d="M914.574 248.644C914.564 248.48 914.555 248.315 914.543 248.15C914.187 243.36 912.843 238.698 912.381 233.895C914.312 238.73 916.07 246.658 915.594 251.819C915.191 250.792 914.904 249.698 914.574 248.644Z"/><path fill="#3B382B" fill-opacity="0.26666668" d="M480.49 894.061C492.379 893.764 504.852 893.462 516.711 894.093C506.826 895.485 490.634 894.808 480.49 894.061Z"/><path fill="#3B382B" fill-opacity="0.39607844" d="M504.603 893.398C506.866 892.383 526.783 892.988 530.708 893.041C532.199 893.33 533.621 893.608 535.145 893.646C533.457 893.792 531.7 894.049 530.012 893.888C521.675 892.865 513.01 893.822 504.603 893.398Z"/><path fill="#3B382B" fill-opacity="0.32941177" d="M863.405 282.452L863.751 282.765L863.53 283.414C859.267 286.833 854.55 288.575 849.623 290.748L849.357 290.46C849.508 289.901 860.492 284.521 863.405 282.452Z"/><path fill="#25221B" fill-opacity="0.79607844" d="M249.607 122.618C255.017 121.336 260.658 120.766 266.121 119.622L267.239 120.232C261.589 121.407 255.902 122.401 250.188 123.213L249.607 122.618Z"/><path fill="#25221B" fill-opacity="0.65490198" d="M868.527 336.811C868.695 336.87 868.871 336.911 869.032 336.989C873.457 339.115 877.519 347.868 879.356 352.238C878.686 351.792 870.867 339.49 868.527 336.811Z"/><path fill="#12100D" fill-opacity="0.89019608" d="M266.121 119.622C272.618 118.357 279.919 116.513 286.514 116.452C280.535 118.451 273.477 119.126 267.239 120.232L266.121 119.622Z"/><path fill="#564F3C" fill-opacity="0.56078434" d="M472.402 832.361C472.555 834.406 472.638 836.484 472.921 838.515C473.108 843.223 472.625 847.921 472.502 852.625L471.821 850.667C472.092 844.595 471.615 838.39 472.402 832.361Z"/><path fill="#3B382B" fill-opacity="0.40784314" d="M585.527 146.445C586.174 146.389 586.789 146.37 587.433 146.479C592.388 147.316 597.688 151.646 600.515 155.671C599.607 155.2 599.865 155.413 599.215 154.833C594.894 150.974 590.97 148.471 585.527 146.445Z"/><path fill="#564F3C" fill-opacity="0.36078432" d="M648.857 830.271C654.254 830.795 659.583 832.511 665.004 833.232C665.047 833.237 665.088 833.254 665.13 833.266L664.924 833.96C661.628 833.709 650.72 832.289 648.857 830.271Z"/><path fill="#221F1A" fill-opacity="0.87058824" d="M793.494 304.463C795.633 309.161 796.873 314.004 798.769 318.751L798.124 319.574C796.081 314.78 794.674 309.468 792.795 304.564L793.494 304.463Z"/><path fill="#12100D" fill-opacity="0.74117649" d="M757.577 929.777C760.784 929.421 763.999 929.143 767.219 928.942L767.051 929.548C762.248 930.174 756.968 931.18 752.151 931.26L751.368 930.573L757.577 929.777Z"/><path fill="#3D3022" fill-opacity="0.5411765" d="M87.9721 224.352C91.9733 221.649 95.9292 218.88 99.8384 216.045L100.163 216.666C96.3477 219.66 92.4188 222.887 88.119 225.158L87.9721 224.352Z"/><path fill="#221F1A" fill-opacity="0.76078433" d="M397.378 103.39C402.42 104.177 407.323 111.421 410.469 115.152C405.845 112.759 402.265 106.583 397.378 103.39Z"/><path fill="#81765B" fill-opacity="0.33333334" d="M689.451 696.513C686.297 695.293 682.191 693.059 679.694 690.806C683.016 692.057 686.922 693.591 689.741 695.756L689.451 696.513Z"/><path fill="#25221B" fill-opacity="0.60784316" d="M192.732 487.483C196.23 489.763 198.881 496.767 201.402 500.256L200.859 501.015C198.225 496.869 194.394 492.048 192.732 487.483Z"/><path fill="#12100D" fill-opacity="0.92941177" d="M932.144 591.298C932.216 591.476 932.308 591.648 932.359 591.833C933.31 595.284 931.282 604.772 929.842 608.146C929.679 607.261 929.628 607.532 929.791 606.802C930.93 601.684 931.032 596.42 932.144 591.298Z"/><path fill="#221F1A" fill-opacity="0.67450982" d="M922.399 494.278C923.141 494.563 923.616 494.87 924.219 495.409C926.631 497.565 930.173 502.997 930.404 506.261L930.031 506.074C927.9 501.89 925.343 497.937 922.399 494.278Z"/><path fill="#12100D" fill-opacity="0.52549022" d="M560.011 939.538L561.993 939.61L570.058 940.1C563.289 940.645 556.495 940.595 549.71 940.447C552.71 939.554 556.826 939.827 560.011 939.538Z"/><path fill="#25221B" fill-opacity="0.69411767" d="M226.234 539.755C228.84 543.341 232.389 547.301 234.165 551.352C231.202 549.888 227.439 542.871 225.46 540.038L226.234 539.755Z"/><path fill="#3B382B" fill-opacity="0.57647061" d="M888.995 651.259C889.652 650.274 900.052 645.247 901.698 644.641C901.656 644.712 901.626 644.792 901.571 644.853C899.512 647.128 892.116 651.196 888.995 651.259Z"/><path fill="#12100D" fill-opacity="0.62352943" d="M348.06 935.5C352.901 935.819 357.815 935.892 362.637 936.366C361 936.519 359.34 936.619 357.724 936.919C354.146 937.279 349.861 936.489 346.238 936.226L348.06 935.5Z"/><path fill="#12100D" fill-opacity="0.59215689" d="M392.784 937.581C397.091 937.838 401.398 938.073 405.707 938.287L402.191 938.95C397.995 938.723 393.803 938.568 389.615 938.211L392.784 937.581Z"/><path fill="#3B382B" fill-opacity="0.33725491" d="M722.796 618.382C725.708 617.205 733.682 617.207 736.766 617.868L735.088 618.511C731.019 618.677 726.827 619.061 722.796 618.382Z"/><path fill="#25221B" fill-opacity="0.72156864" d="M67.2183 285.763C69.4712 289.053 71.6301 292.407 73.6924 295.82L73.3484 296.593C70.8858 293.214 68.7248 289.555 66.4669 286.033L67.2183 285.763Z"/><path fill="#12100D" fill-opacity="0.75294119" d="M183.471 755.089C183.505 756.948 183.534 758.775 183.388 760.631C182.6 762.69 182.983 766.1 183.412 768.269L183.498 773.125C182.463 768.907 181.217 758.911 183.471 755.089Z"/><path fill="#3B382B" fill-opacity="0.87843138" d="M471.07 871.726L471.999 875.109L471.848 876.031C471.18 879.895 471.443 884.148 471.611 888.068L471.259 891.195C470.791 888.497 470.962 885.517 470.899 882.774C471.088 880.405 470.948 877.867 470.966 875.482L471.07 871.726Z"/><path fill="#221F1A" fill-opacity="0.90196079" d="M829.721 300.054L830.164 300.312C829.822 300.943 829.494 301.581 829.181 302.226C827.318 306.113 827.986 310.378 829.351 314.291C828.146 313.311 827.701 312.004 827.47 310.514C826.896 306.81 827.542 303.112 829.721 300.054Z"/><path fill="#25221B" fill-opacity="0.30588236" d="M952.509 291.511C954.893 292.367 963.499 294.665 964.573 296.655C962.004 296.644 955.258 293.249 952.411 292.131L952.509 291.511Z"/><path fill="#25221B" fill-opacity="0.094117649" d="M891.365 227.801C892.21 226.723 892.955 225.934 894.29 225.529C897.319 224.61 902.259 224.608 905.109 225.992C900.906 225.942 896.924 225.418 892.963 227.14C892.434 227.37 891.896 227.579 891.365 227.801Z"/><path fill="#25221B" fill-opacity="0.69411767" d="M421.024 113.474L421.196 114.046C419.371 117.41 416.52 120.402 414.309 123.56C414.302 123.515 414.291 123.471 414.287 123.427C414.053 120.713 419.223 115.629 421.024 113.474Z"/><path fill="#3D3022" fill-opacity="0.58039218" d="M151.885 178.139C154.889 175.707 157.953 173.229 161.494 171.626C159.021 174.371 155.567 176.499 152.571 178.665L151.885 178.139Z"/><path fill="#25221B" fill-opacity="0.5529412" d="M941.032 286.837C944.807 288.557 948.624 290.06 952.509 291.511L952.411 292.131C948.441 290.927 944.688 289.363 940.94 287.594L941.032 286.837Z"/><path fill="#25221B" fill-opacity="0.71764708" d="M78.4949 231.392C81.5502 228.905 84.7701 226.643 87.9721 224.352L88.119 225.158C85.1633 227.347 82.2401 229.648 79.1664 231.666L78.4949 231.392Z"/><path fill="#221F1A" fill-opacity="0.61960787" d="M964.384 319.888L965.141 320.223C961.538 322.216 957.507 323.505 953.551 324.609L953.348 324.086C957.059 322.773 960.739 321.373 964.384 319.888Z"/><path fill="#81765B" fill-opacity="0.0078431377" d="M292.31 888.687L290.871 888.471L291.045 887.946C293.486 887.014 297.497 884.891 299.996 885.02C299.654 885.635 299.333 885.929 298.825 886.402C296.584 887.047 294.461 887.786 292.31 888.687Z"/><path fill="#25221B" fill-opacity="0.074509807" d="M886.792 235.81L887.435 235.868C886.728 239.269 885.978 242.662 885.185 246.045L884.538 245.483C884.928 242.194 885.881 238.984 886.792 235.81Z"/><path fill="#12100D" fill-opacity="0.88235295" d="M61.1555 276.572C63.3868 278.486 65.8119 283.112 67.2183 285.763L66.4669 286.033C64.7095 283.232 61.8506 279.778 61.1555 276.572Z"/><path fill="#25221B" fill-opacity="0.7764706" d="M570.984 939.407C574.661 939.525 579.046 939.066 582.587 939.878C578.423 940.077 574.227 940.039 570.058 940.1L561.993 939.61L570.984 939.407Z"/><path fill="#25221B" fill-opacity="0.41568628" d="M273.224 891.069C277.723 890.888 281.933 889.358 286.392 888.886L285.263 889.84C282.132 890.415 278.983 891.185 275.837 891.626L273.224 891.069Z"/><path fill="#3B382B" fill-opacity="0.43137255" d="M875.668 270.404C875.693 270.504 875.738 270.601 875.742 270.704C875.836 273.012 871.633 276.598 870.072 278.21C869.676 277.987 869.877 278.157 869.586 277.587C871.741 275.26 873.775 272.951 875.668 270.404Z"/><path fill="#3B382B" fill-opacity="0.48235294" d="M886.956 409.573C890.359 410.189 893.346 410.892 896.332 412.751L896.549 413.133C894.88 413.347 888.771 410.569 886.263 410.161L886.956 409.573Z"/><path fill="#25221B" fill-opacity="0.20392157" d="M915.838 252.962C917.422 256.336 918.191 260.273 919.148 263.879C916.889 261.349 915.884 256.273 915.838 252.962Z"/><path fill="#3B382B" fill-opacity="0.57647061" d="M626.349 184.565L636.489 186.217L635.627 186.838C632.195 186.448 628.759 185.799 625.348 185.252L626.349 184.565Z"/><path fill="#25221B" fill-opacity="0.56862748" d="M863.107 658.523L863.203 659.141C861.394 661.882 858.696 664.195 856.356 666.498L855.997 666.345C856.788 664.001 861.249 660.424 863.107 658.523Z"/><path fill="#221F1A" fill-opacity="0.39607844" d="M972.051 307.072L972.638 307.158C973.456 310.674 972.202 312.81 970.504 315.869L968.546 316.896C971.117 313.461 972.231 311.462 972.051 307.072Z"/><path fill="#564F3C" fill-opacity="0.42745098" d="M621.19 707.344C624.468 705.289 627.044 702.372 630.453 700.537C628.205 703.416 624.832 704.907 622.583 707.549L621.19 707.344Z"/><path fill="#3B382B" fill-opacity="0.74509805" d="M614.338 183.29C618.349 183.642 622.353 184.067 626.349 184.565L625.348 185.252C621.526 184.574 617.703 184.269 613.832 184.058L614.338 183.29Z"/><path fill="#25221B" fill-opacity="0.27843139" d="M943.58 327.582C946.454 325.59 949.948 324.654 953.348 324.086L953.551 324.609C950.616 325.317 946.361 327.73 943.58 327.582Z"/><path fill="#564F3C" fill-opacity="0.41960785" d="M471.07 871.726C470.594 867.862 470.905 863.118 471.392 859.269C471.46 863.34 471.058 868.122 471.902 872.093L471.999 875.109L471.07 871.726Z"/><path fill="#25221B" fill-opacity="0.27843139" d="M880.673 262.787C881.463 260.333 882.094 255.67 883.416 253.697C883.725 256.096 883.061 259.631 881.684 261.652C881.235 262.312 881.179 262.321 880.673 262.787Z"/><path fill="#3B382B" fill-opacity="0.15294118" d="M423.139 112.23C425.078 110.344 427.281 108.972 430.007 108.683C429.047 110.348 424.895 111.711 423.139 112.23Z"/><path fill="#3B382B" fill-opacity="0.85882354" d="M471.516 856.223L472.17 858.763C472.024 863.205 471.935 867.649 471.902 872.093C471.058 868.122 471.46 863.34 471.392 859.269L471.516 856.223Z"/><path fill="#3B382B" fill-opacity="0.32549021" d="M934.372 282.711C936.567 283.137 939.104 285.617 941.032 286.837L940.94 287.594C938.914 286.457 935.357 284.89 934.372 282.711Z"/><path fill="#3B382B" fill-opacity="0.45490196" d="M193.721 800.915C196.131 803.495 197.966 806.657 200.738 808.858C200.435 808.83 200.263 808.83 199.955 808.709C197.353 807.69 194.679 803.422 193.721 800.915Z"/><path fill="#25221B" fill-opacity="0.68627453" d="M151.885 178.139L152.571 178.665L146.09 183.516L144.654 183.308C147.153 181.678 149.527 179.966 151.885 178.139Z"/><path fill="#25221B" fill-opacity="0.62352943" d="M530.708 893.041C534.637 892.988 540.039 892.261 543.808 893.176C541.25 894.169 537.892 893.277 535.145 893.646C533.621 893.608 532.199 893.33 530.708 893.041Z"/><path fill="#221F1A" fill-opacity="0.38431373" d="M570.984 939.407C575.042 939.149 579.055 939.018 583.121 939.052L584.32 939.694C583.741 939.78 583.173 939.904 582.587 939.878C579.046 939.066 574.661 939.525 570.984 939.407Z"/><path fill="#3B382B" fill-opacity="0.12941177" d="M215.397 875.504C217.345 877.108 219.317 879.13 221.5 880.376C219.87 880.365 218.684 879.597 217.482 878.551C216.418 877.625 215.561 876.913 215.397 875.504Z"/><path fill="#25221B" fill-opacity="0.13333334" d="M730.918 898.42C733.391 898.581 735.8 898.821 738.254 899.17L736.298 899.916C734.263 899.591 732.376 899.978 730.918 898.42Z"/><path fill="#3B382B" fill-opacity="0.16078432" d="M881.595 653.752C879.812 653.986 876.918 654.66 875.362 653.613C877.073 652.818 879.072 653.045 880.924 653.07L881.595 653.752Z"/><path fill="#3B382B" fill-opacity="0.13725491" d="M970.504 315.869C969.11 317.838 967.287 319.175 965.141 320.223L964.384 319.888C965.71 318.819 967.152 317.875 968.546 316.896L970.504 315.869Z"/><path fill="#564F3C" fill-opacity="0.14509805" d="M831.147 317.382C833.635 317.473 837.009 319.573 839.477 320.497C838.82 320.561 838.824 320.581 838.058 320.536C835.669 320.395 832.749 319.156 831.147 317.382Z"/><path fill="#564F3C" fill-opacity="0.43137255" d="M471.821 850.667L472.502 852.625C472.506 854.706 472.474 856.702 472.17 858.763L471.516 856.223C471.398 854.375 471.662 852.51 471.821 850.667Z"/><path fill="#25221B" fill-opacity="0.49411765" d="M203.02 712.322L203.686 712.659C202.538 714.373 200.725 717.679 198.952 718.594C199.145 716.71 201.847 713.927 203.02 712.322Z"/><path fill="#3B382B" fill-opacity="0.40392157" d="M901.698 644.641C903.699 642.708 906.466 640.919 908.932 639.632C906.899 642.038 904.718 643.677 901.698 644.641Z"/><path fill="#25221B" fill-opacity="0.3882353" d="M189.287 792.916C190.487 794.346 192.528 797.643 192.82 799.449L192.305 799.338C190.763 797.649 189.788 795.128 189.287 792.916Z"/><path fill="#3B382B" fill-opacity="0.078431375" d="M919.82 264.267C921.522 265.328 922.489 267.036 923.076 268.94C923.274 269.582 923.235 269.509 923.209 270.085C921.622 268.976 920.61 265.99 919.82 264.267Z"/><path fill="#3B382B" fill-opacity="0.75294119" d="M822.525 692.035C820.869 692.857 818.679 694.305 816.878 694.592C816.74 694.614 816.599 694.607 816.46 694.619C816.45 694.619 816.441 694.626 816.431 694.629C817.827 693.142 820.441 692.21 822.269 691.288L822.525 692.035Z"/><path fill="#3B382B" fill-opacity="0.51764709" d="M613.832 184.058C611.631 183.613 609.41 183.455 607.199 182.955C609.451 182.41 612.077 182.874 614.338 183.29L613.832 184.058Z"/><path fill="#12100D" fill-opacity="0.40392157" d="M433.482 939.058C438.257 938.972 443.554 938.574 448.253 939.381C443.405 939.538 438.272 939.86 433.482 939.058Z"/><path fill="#564F3C" fill-opacity="0.3137255" d="M752.223 241.487C753.423 242.531 754.601 243.552 755.677 244.725L755.302 245.644C753.83 244.572 752.574 243.002 751.322 241.68L752.223 241.487Z"/><path fill="#3B382B" fill-opacity="0.43529412" d="M209.221 829.797C209.356 829.2 209.584 828.75 209.953 828.246C210.713 827.206 211.83 826.193 213.116 825.975C212.242 827.509 210.79 828.977 209.221 829.797Z"/><path fill="#25221B" fill-opacity="0.67843139" d="M664.984 936.307C667.762 936.115 670.532 936.056 673.315 936.004L673.435 936.553C672.046 936.76 670.682 937.059 669.277 936.955L664.984 936.307Z"/><path fill="#25221B" fill-opacity="0.23137255" d="M884.538 245.483L885.185 246.045C884.7 248.507 884.411 251.399 883.416 253.697C883.32 250.872 883.965 248.231 884.538 245.483Z"/><defs><linearGradient id="gradient_0" gradientUnits="userSpaceOnUse" x1="914.67096" y1="633.89978" x2="915.40442" y2="634.68048"><stop offset="0" stop-color="#776E50" stop-opacity="0"/><stop offset="1" stop-color="#625B44" stop-opacity="0.019607844"/></linearGradient></defs><path fill="url(#gradient_0)" d="M917.314 632.01C917.298 632.232 917.279 632.458 917.216 632.672C916.791 634.112 915.323 635.296 914.075 636.016L913.386 635.646C914.632 634.363 915.976 633.196 917.314 632.01Z"/><path fill="#3B382B" fill-opacity="0.47058824" d="M710.227 855.2C711.928 856.672 713.259 858.047 714.527 859.909C712.63 858.837 711.036 857.074 709.452 855.586L710.227 855.2Z"/><path fill="#25221B" fill-opacity="0.42352942" d="M387.625 99.6173L389.924 99.9524L389.992 100.376C387.477 100.615 385.269 100.461 382.786 100.143C384.402 100.049 386.018 99.8114 387.625 99.6173Z"/><path fill="#3B382B" fill-opacity="0.24313726" d="M224.275 882.188C226.517 882.953 228.255 883.706 230.139 885.138C227.537 884.659 226.036 884.258 224.275 882.188Z"/><path fill="#12100D" fill-opacity="0.627451" d="M969.73 300.851C971.609 302.142 972.237 304.456 972.571 306.613C972.599 306.793 972.616 306.976 972.638 307.158L972.051 307.072C971.525 304.909 970.591 302.897 969.73 300.851Z"/><path fill="#3B382B" fill-opacity="0.30980393" d="M880.924 653.07C882.566 652.672 884.61 651.906 886.254 652.358C884.946 653.366 883.182 653.464 881.595 653.752L880.924 653.07Z"/><path fill="#3B382B" fill-opacity="0.34117648" d="M948.148 574.938L948.291 575.743C947.295 577.627 945.74 578.984 944.239 580.467C944.414 578.751 947.01 576.342 948.148 574.938Z"/><path fill="#81765B" fill-opacity="0.22352941" d="M471.611 888.068C471.443 884.148 471.18 879.895 471.848 876.031C472.089 879.9 472.269 884.252 471.611 888.068Z"/><path fill="#221F1A" fill-opacity="0.86274511" d="M378.612 99.6032C381.637 99.4955 384.6 99.4462 387.625 99.6173C386.018 99.8114 384.402 100.049 382.786 100.143L379.201 100.215L378.612 99.6032Z"/><path fill="#81765B" fill-opacity="0.12156863" d="M621.19 707.344L622.583 707.549C621.661 708.351 620.69 709.01 619.674 709.684L618.856 709.565C619.659 708.43 619.851 707.804 621.19 707.344Z"/><path fill="#25221B" fill-opacity="0.63137257" d="M908.941 384.013L909.233 384.493C907.935 386.074 906.23 386.941 904.492 387.953L904.264 387.526C905.801 386.326 907.36 385.155 908.941 384.013Z"/><path fill="#564F3C" fill-opacity="0.21960784" d="M470.932 891.568C469.83 889.668 470.535 884.91 470.899 882.774C470.962 885.517 470.791 888.497 471.259 891.195L470.932 891.568Z"/><path fill="#3B382B" fill-opacity="0.2" d="M919.256 351.516C919.806 349.543 920.419 347.609 922.174 346.389C921.973 348.093 920.339 350.197 919.256 351.516Z"/><path fill="#25221B" fill-opacity="0.29411766" d="M922.174 346.389C923.269 344.138 924.298 342.115 926.338 340.58C925.289 342.835 923.934 344.634 922.174 346.389Z"/><path fill="#564F3C" fill-opacity="0.33333334" d="M74.2452 234.29L75.0548 234.702C73.5873 235.768 72.2315 236.688 70.5797 237.445C71.4511 235.69 72.5564 235.192 74.2452 234.29Z"/><path fill="#564F3C" fill-opacity="0.40392157" d="M849.95 323.372C851.764 324.215 853.569 324.921 855.048 326.304C853.188 325.991 851.568 324.941 849.933 324.045L849.95 323.372Z"/><path fill="#3B382B" fill-opacity="0.10588235" d="M210.808 871.135L210.693 869.54C211.941 869.913 213.182 872.219 213.987 873.331C212.693 873.195 211.779 871.985 210.808 871.135Z"/><path fill="#564F3C" fill-opacity="0.13333334" d="M849.933 324.045C848.561 323.428 846.772 322.907 845.853 321.672C847.428 321.656 848.64 322.597 849.95 323.372L849.933 324.045Z"/><path fill="#3B382B" fill-opacity="0.27450982" d="M421.292 939.576C424.622 939.487 427.962 939.236 431.242 939.933C427.911 940.176 424.597 940.009 421.292 939.576Z"/><path fill="#3B382B" fill-opacity="0.30588236" d="M862.058 331.571L862.322 331.454C864.09 331.984 865.725 333.924 867.106 335.165C864.948 334.454 863.685 333.087 862.058 331.571Z"/><path fill="#3B382B" fill-opacity="0.27450982" d="M949.471 520.512C948.346 519.432 947.099 518.478 946.583 516.961C948.004 517.481 948.702 518.726 949.671 519.864L949.471 520.512Z"/><path fill="#3B382B" fill-opacity="0.65098041" d="M515.688 761.382C516.949 760.88 518.421 760.02 519.794 760.309C518.59 761.413 517.08 761.703 515.552 762.154L515.688 761.382Z"/><path fill="#564F3C" fill-opacity="0.27450982" d="M840.11 679.887L842.475 678.213L843.044 678.358C842.346 679.663 841.231 680.396 840.086 681.28L840.11 679.887Z"/><path fill="#3B382B" fill-opacity="0.5411765" d="M736.766 617.868L741.321 617.461L741.443 618.17C739.287 618.461 737.263 618.573 735.088 618.511L736.766 617.868Z"/><path fill="#3B382B" fill-opacity="0.33725491" d="M203.02 712.322C203.885 711.064 204.686 710.081 205.787 709.026L206.553 709.133L203.686 712.659L203.02 712.322Z"/><path fill="#25221B" fill-opacity="0.7647059" d="M880.1 409.807C881.779 408.905 885.084 409.468 886.956 409.573L886.263 410.161C884.205 410.108 882.15 409.99 880.1 409.807Z"/><path fill="#564F3C" fill-opacity="0.2" d="M911.591 442.265C912.207 445.498 912.219 448.817 911.628 452.054C911.44 448.797 911.55 445.525 911.591 442.265Z"/><path fill="#3B382B" fill-opacity="0.60392159" d="M775.168 269.063L777.993 272.911L777.303 273.468C776.35 272.017 775.378 270.578 774.386 269.153L775.168 269.063Z"/><path fill="#221F1A" fill-opacity="0.2" d="M586.479 938.921C589.119 938.558 591.514 938.455 594.177 938.557L594.058 939.071L589.568 939.12L586.479 938.921Z"/><path fill="#12100D" fill-opacity="0.54901963" d="M486.226 940.449C488.494 940.084 490.52 939.833 492.828 939.957L493.358 940.347C491.032 940.644 488.573 940.465 486.226 940.449Z"/><path fill="#3B382B" fill-opacity="0.70588237" d="M791.629 300.15L793.494 304.463L792.795 304.564C792.031 303.163 791.47 301.558 790.85 300.081L791.629 300.15Z"/><path fill="#3D3022" fill-opacity="0.57254905" d="M78.4949 231.392L79.1664 231.666L75.0548 234.702L74.2452 234.29L78.4949 231.392Z"/><path fill="#25221B" fill-opacity="0.91764706" d="M762.077 708.537L766.991 708.405L770.296 708.904L764.459 709.175L762.077 708.537Z"/><path fill="#564F3C" fill-opacity="0.27058825" d="M472.514 893.337C474.804 892.506 478.304 893.001 480.684 893.421C477.936 893.527 475.259 893.486 472.514 893.337Z"/><path fill="#3D3022" fill-opacity="0.44313726" d="M473.935 790.981C474.01 794.062 474.058 796.966 473.541 800.019C473.419 796.98 473.489 793.992 473.935 790.981Z"/><path fill="#12100D" fill-opacity="0.60392159" d="M586.479 938.921L589.568 939.12L589.687 939.402L584.32 939.694L583.121 939.052L586.479 938.921Z"/><path fill="#564F3C" fill-opacity="0.13333334" d="M891.296 386.108C892.327 385.789 894.924 387.496 895.958 388.033C895.721 388.021 895.483 388.021 895.247 387.996C893.675 387.831 892.325 387.342 891.296 386.108Z"/><path fill="#25221B" fill-opacity="0.32156864" d="M183.412 768.269C182.983 766.1 182.6 762.69 183.388 760.631C183.423 763.169 183.535 765.734 183.412 768.269Z"/><path fill="#564F3C" fill-opacity="0.40392157" d="M144.654 183.308L146.09 183.516L143.058 185.513L142.782 184.673C143.377 183.889 143.736 183.655 144.654 183.308Z"/><path fill="#3D3022" fill-opacity="0.50196081" d="M87.5859 317.983L89.6014 321.398L88.8632 321.413C88.0283 320.525 87.4266 319.164 86.8044 318.104L87.5859 317.983Z"/><path fill="#25221B" fill-opacity="0.4509804" d="M656.899 937.437C660.155 937.046 663.287 937.03 666.561 937.104C663.334 937.407 660.142 937.58 656.899 937.437Z"/><path fill="#12100D" fill-opacity="0.41568628" d="M594.177 938.557C596.317 938.55 598.48 938.475 600.618 938.553C598.381 938.969 596.332 939.104 594.058 939.071L594.177 938.557Z"/><path fill="#564F3C" fill-opacity="0.3882353" d="M807.925 387.484C807.97 390.05 808.074 392.498 807.551 395.028C807.437 392.423 807.596 390.059 807.925 387.484Z"/><path fill="#3D3022" fill-opacity="0.53333336" d="M472.939 820.928C472.961 823.34 472.915 825.617 472.557 828.014C472.446 825.541 472.572 823.371 472.939 820.928Z"/></svg>